<?xml version="1.0" encoding="utf-8"?>
<!-- Svg Vector Icons : http://www.onlinewebfonts.com/icon -->
<!DOCTYPE svg PUBLIC "-//W3C//DTD SVG 1.1//EN" "http://www.w3.org/Graphics/SVG/1.1/DTD/svg11.dtd">
<svg version="1.1" xmlns="http://www.w3.org/2000/svg" xmlns:xlink="http://www.w3.org/1999/xlink" x="0px" y="0px" viewBox="0 0 256 256" enable-background="new 0 0 256 256" xml:space="preserve">
<metadata> Svg Vector Icons : http://www.onlinewebfonts.com/icon </metadata>
<g><g><path fill="#ffffff" d="M201.2,108.7c-5.2,0-9.4,1.6-12.5,5.2c-3.1,3.6-4.7,8.3-4.7,14.6c0,5.7,1.6,10.9,4.7,14.1c3.1,3.6,7.3,5.2,12,5.2c5.2,0,9.4-1.6,12-5.2c2.6-3.1,4.2-8.3,4.2-14.6s-1.6-10.9-4.2-14.6C210.1,110.3,206.4,108.7,201.2,108.7z"/><path fill="#ffffff" d="M138.7,108.7c-5.2,0-8.9,2.1-11.5,5.7c-2.6,3.6-4.2,8.9-4.2,15.1c0,5.7,1.6,9.9,4.2,13.5c2.6,3.6,6.3,5.2,10.9,5.2s8.3-1.6,10.9-4.7c2.6-3.1,4.2-7.3,4.2-12.5v-7.3c0-4.2-1.6-7.3-4.2-10.4C146,110.3,142.3,108.7,138.7,108.7z"/><path fill="#ffffff" d="M78.2,108.7c-5.2,0-9.4,1.6-12.5,5.2c-3.1,3.6-4.7,8.3-4.7,14.6c0,5.7,1.6,10.9,4.7,14.1c3.1,3.6,7.3,5.2,12,5.2c5.2,0,9.4-1.6,12-5.2c2.6-3.1,4.2-8.3,4.2-14.6s-1.6-10.9-4.2-14.6C87.6,110.3,83.5,108.7,78.2,108.7z"/><path fill="#ffffff" d="M221,42.1H35c-13.5,0-25,11.5-25,25V189c0,13.5,11.5,25,25,25h186c13.5,0,25-11.5,25-25V67C246.5,53.5,235,42.1,221,42.1z M39.2,154.1h-9.4V77.5h9.4V154.1z M96.5,147.8c-4.7,5.2-10.9,7.8-19.3,7.8c-7.8,0-14.1-2.6-18.8-7.3c-4.7-4.7-6.8-11.5-6.8-19.3c0-8.3,2.6-15.1,7.3-20.3c4.7-5.2,11.5-7.3,19.3-7.3s14.1,2.6,18.2,7.3c4.7,4.7,6.8,11.5,6.8,19.8C103.8,136.3,101.2,142.6,96.5,147.8z M161.6,149.9c0,19.3-9.4,28.7-28.1,28.7c-6.3,0-12-1-16.7-3.6v-8.9c5.7,3.1,11.5,4.7,16.7,4.7c12.5,0,18.8-6.8,18.8-19.8v-5.7l0,0c-4.2,6.8-9.9,9.9-17.7,9.9c-6.8,0-12-2.1-15.6-6.8c-4.2-4.7-5.7-10.9-5.7-18.8c0-8.9,2.1-16.2,6.3-20.8c4.2-5.2,9.9-7.8,17.2-7.8c6.8,0,12,2.6,15.6,8.3l0,0V102h9.4L161.6,149.9z M219.4,147.8c-4.7,5.2-10.9,7.8-19.3,7.8c-7.8,0-14.1-2.6-18.8-7.3c-4.7-4.7-6.8-11.5-6.8-19.3c0-8.3,2.6-15.1,7.3-20.3c4.7-5.2,11.5-7.3,19.3-7.3c7.8,0,14.1,2.6,18.2,7.3c4.7,4.7,6.8,11.5,6.8,19.8C226.7,136.3,224.1,142.6,219.4,147.8z"/></g></g>
</svg>